<?xml version="1.0" encoding="utf-8"?>
<!-- Generator: Adobe Illustrator 17.1.0, SVG Export Plug-In . SVG Version: 6.00 Build 0)  -->
<!DOCTYPE svg PUBLIC "-//W3C//DTD SVG 1.1//EN" "http://www.w3.org/Graphics/SVG/1.1/DTD/svg11.dtd">
<svg version="1.1" id="Layer_1" xmlns="http://www.w3.org/2000/svg" xmlns:xlink="http://www.w3.org/1999/xlink" x="0px" y="0px"
	 viewBox="0 0 595.3 595.3" enable-background="new 0 0 595.3 595.3" xml:space="preserve">
<g>
	<path fill="#69C4BB" d="M157.9,135.1c2.8-19.6,17-37.9,37.1-47.8c14.3-7,31.1-10.1,50.2-9.3c3.4-7.7,7.7-15.2,13.9-20.8
		c7.1-6.4,17.3-10,26.5-7.2c1.9,0.6,3.9,1.6,4.9,3.4c1.1,2.1,0.6,4.8-0.8,6.7c-1.4,2-3.4,3.3-5.3,4.7C275.9,70.3,267,76,257.5,79
		c15.2,1.9,30.1,5.8,44.7,9.9c1.3-8.1,4.3-16,9.3-22.5c6.3-8.1,15.9-13.8,26.2-14.2c2.4,5.4,1.4,11.8-1.5,16.9s-7.3,9.1-12,12.7
		c-4.6,3.5-9.4,6.6-14.5,9.3l3.7,1c19.2,5.4,38,10.3,57.4,11c5.6,0.2,12.2,0.1,18-2.2c5.7-2.2,9.9-6.4,11.2-11.1
		c2-7.4-2.9-15-8.4-18.9c-6.5-4.6-15.1-6.2-22.8-4.1c-7.8,2-14.4,7.6-17.9,14.8c-0.9,1.8-3,2.6-4.8,1.7c-1.8-0.9-2.6-3-1.7-4.8
		c4.3-9.2,12.8-16.2,22.6-18.7c9.8-2.6,20.6-0.6,28.9,5.2c9.2,6.5,13.8,17.5,11.2,26.7c-1.9,7-7.7,12.9-15.5,16
		c-7.1,2.8-14.9,2.9-20.9,2.7c-5.8-0.2-11.5-0.8-17.2-1.6c2,1.1,4.1,2.2,6.4,3.5c2.4,1.3,4.8,2.8,6.5,5c1.7,2.2,2.4,5.3,1.1,7.7
		c-1.2,2.2-3.8,3.4-6.4,3.4s-5-0.8-7.3-1.8c-11.5-5-21.5-13.3-28.4-23.7c-4.6-1.2-9.2-2.5-13.8-3.8l-5.1-1.4
		c-10.5-3-21.3-6-32.2-8.4c4.5,3.3,8.7,7.1,12.4,11.2c3.8,4.3,7.4,9.7,6.3,15.4c-1.2,6.5-8.6,10.4-15.1,9.6
		c-9.4-1.3-16-10.1-18.8-19.1c-2.1-6.6-2.7-13.5-3.8-20.3c-0.3,0-0.7-0.1-1-0.1c-21.8-2.4-40.6,0.2-56.1,7.9
		c-18,8.8-30.6,25.1-33.1,42.3c-3,21.1,7.4,44.4,26,58.1c15,11.1,26.6,16.2,39.9,17.6c2,0.2,3.4,2,3.2,4c-0.2,1.8-1.8,3.2-3.6,3.2
		c-0.1,0-0.3,0-0.4,0c-14.7-1.6-27.2-7.1-43.4-19C166.1,184.8,154.5,158.7,157.9,135.1z M354.6,218.8c-2,0-3.6,1.7-3.6,3.7
		c0,2,1.7,3.7,3.7,3.6c14.4-0.2,28.6,3.5,41.1,10.6c0.6,0.3,1.2,0.5,1.8,0.5c1.3,0,2.5-0.7,3.1-1.8c1-1.7,0.4-3.9-1.3-4.9
		C385.8,222.6,370.3,218.6,354.6,218.8z M528.5,351.5c-1.5-3.2-5.3-4.8-8.8-4.7c-3.5,0.1-6.9,1.5-10,3.1c-3.1,1.6-6.2,3.3-9.2,5.1
		c3.9-6.5,5.6-14,3.8-21.7c-0.5-1.9-2.4-3.2-4.3-2.7c-1.9,0.5-3.2,2.4-2.7,4.3c3,13-8,25.9-19.9,30.4c-13.2,5-28.2,3.2-42.5,1
		c-31.3-4.9-62.5-11.7-93-20.4c-1.9-0.5-3.9,0.6-4.5,2.5c-0.5,1.9,0.6,3.9,2.5,4.5c30.7,8.7,62.3,15.6,93.8,20.5
		c4.2,0.7,8.5,1.3,12.8,1.7c0.6,11.1,2.1,22.5,8.8,31.2c2.3,3.1,5.3,5.8,9,7s8,0.7,10.9-1.9c2.3-2.1,3.3-5.3,3.2-8.5
		s-1.1-6.1-2.4-8.9c-3.5-7.5-9.1-13.8-16-18.4c6.8-0.2,13.5-1.2,20-3.7c4.7-1.8,9.3-4.6,13.2-8.2c7.7,3.8,16.8,4.6,25,2.2
		c3.3-1,6.5-2.5,8.7-5.1S529.9,354.6,528.5,351.5z M381.6,509c-7-5.9-16.4-8.7-24.1-13.5c-0.4-1.9-0.9-3.7-1.6-5.6
		c-5.4-14.4-19.3-25-34.6-26.5c-12.7-1.2-25.1,3.8-33.2,7.6c-9.5,4.5-18.6,9.9-27.3,15.1c-7.3,4.4-14.9,8.9-22.6,12.8
		c5.2-7.1,10.4-14.1,13.5-22.3c2-5.3,2.7-12-1.2-16.1c-2.6-2.7-6.7-3.7-10.3-3c-3.7,0.7-6.9,2.8-9.6,5.4c-6,5.8-9.4,13.8-11,22
		c-1.4,7.2-1.4,14.6-1.3,21.9c-12.9,3.5-28.3,4.6-44-1.7c-10.8-4.3-20.3-11.7-27.6-21.3c3.4,2.2,7.2,4,11.1,5.1
		c11,3.1,23.3,1.3,33-4.8c5.6-3.5,10.6-9.6,9.3-16.1c-1.3-6.5-8.4-10.1-14.9-10.8c-16.3-1.8-31.7,8.8-48,10.2
		c-0.7-1.6-1.3-3.2-1.9-4.8c-7.1-20.5-5.4-43.2,4.6-60.7c9.3-16.1,24.2-27,40-33.6c-2.5,5.2-4.7,10.6-5.7,16.3
		c-1.6,8.8-0.3,18.4,5.3,25.3c1.8,2.2,4.3,4.1,7.1,4.1c3.5-0.1,6.2-3.2,7.6-6.3c3.6-7.6,3-16.6,0.5-24.7c-1.9-6-4.8-11.7-7.6-17.4
		c9.8-3.3,19.6-5.1,28.6-5.7c2-0.1,3.5-1.9,3.4-3.8c-0.1-2-1.9-3.5-3.8-3.4c-20.4,1.3-45.2,8.6-64,24.6c-19.4-4-39.4-4.4-59.1-2.3
		c-5.6,0.6-11.2,1.4-16.2,3.9c-5,2.6-9.1,7.3-9.7,12.8c-0.7,7.3,5.3,14.1,12.2,16.5c7,2.4,14.7,1.3,21.8-0.6
		c14.3-3.6,27.8-10.1,39.7-18.9c-2.4,3-4.5,6.1-6.5,9.5c-11.2,19.5-13.1,43.8-5.2,66.7c7.6,21.8,23.3,38.9,43.1,46.9
		c20.5,8.2,40.4,5.1,55.7-0.3c2.8,8.3,7,16.1,12.4,23c3.5,4.4,7.6,8.5,12.9,10.5c5.2,2,11.8,1.4,15.7-2.6c4-4.2,4.2-11.2,1.5-16.4
		s-7.5-9-12.6-11.9c-5.9-3.4-12.3-5.8-19-7.3c9.1-4.4,17.9-9.6,26.4-14.7c8.6-5.1,17.6-10.5,26.7-14.8c7.4-3.5,18.5-8,29.5-7
		c12.5,1.2,23.9,9.9,28.4,21.6c0.2,4.6,0.5,6.5,2.1,12c-0.1,8.6-3.3,17.1-9.2,23.3c-8.7,9.2-22.7,12.8-34.7,9.1
		c-5.9-1.8-10.4-5.2-12.8-9.4c-4.1-7.2-1.3-18,6.1-24c1.6-1.3,1.8-3.5,0.5-5.1c-1.3-1.6-3.5-1.8-5.1-0.5
		c-10.2,8.3-13.6,22.8-7.8,33.1c3.3,5.8,9.3,10.3,16.9,12.7c3.9,1.2,7.9,1.8,11.9,1.8c11.2,0,22.5-4.6,30.3-12.8
		c4.4-4.7,7.6-10.4,9.4-16.6c3.1,4.5,7.2,8.3,11.9,11.1c5.6,3.3,13.7,4.7,17.7-0.3c2.2-2.7,2.5-6.5,1.4-9.7
		C386.5,513.9,384.2,511.2,381.6,509z"/>
	<path fill="#F173AC" d="M185.2,171.7c-0.1-3.3,0-6.5,0.3-9.7c0.3-3.2,0.6-6.4,0.8-9.7c0-1,0.1-2.4,0.3-4s0.3-3.3,0.4-4.9
		c0.1-1.6,0.3-3,0.4-4.2c0.1-1.2,0.2-1.9,0.3-2.1c0.2-0.8,0.4-1.4,0.6-2c0.2-0.5,0.5-1,0.8-1.3c0.3-0.3,0.7-0.5,1.2-0.6
		c0.5-0.1,1.1-0.2,1.8-0.2c1.8,0,3,0.4,3.6,1.4c0.6,1,0.7,2.4,0.5,4.4c-0.1,1-0.2,1.8-0.2,2.6c-0.1,0.7-0.1,1.4-0.1,2.1
		c0,0.7-0.1,1.4-0.1,2.2c0,0.8-0.1,1.7-0.2,2.8c-0.2,1.3-0.1,2.2,0.4,2.8c0.5,0.5,1.4,0.8,2.6,0.7c1.4,0,2.6-0.1,3.8-0.1
		c1.2,0,2.3,0,3.5,0c1.1,0,2.3,0,3.5-0.1c1.2,0,2.4-0.1,3.8-0.2c0.7,0,1.3-0.1,1.9-0.2c0.6-0.1,1.1-0.2,1.5-0.4
		c0.4-0.2,0.7-0.5,0.9-1c0.2-0.4,0.3-1,0.3-1.8c-0.1-1.7,0-3.4,0.2-5.1c0.2-1.7,0.3-3.4,0.4-5.1c0-0.6,0.1-1.2,0.3-1.8
		c0.1-0.6,0.3-1.1,0.6-1.6c0.3-0.5,0.6-0.9,1-1.2c0.4-0.3,0.9-0.4,1.4-0.4c1.1,0,2,0.2,2.7,0.5c0.7,0.3,1.2,0.8,1.6,1.3
		c0.4,0.5,0.7,1.1,0.8,1.7c0.2,0.6,0.3,1.2,0.3,1.8c0,0.8,0,1.6,0,2.5c-0.1,0.9-0.1,1.9-0.2,3.1c-0.1,2.3-0.1,4.5-0.1,6.6
		c0,2.1,0,4.1,0,6.2c0,2,0.1,4.1,0.2,6.1c0.1,2.1,0.2,4.2,0.3,6.5c0.2,2.3-0.2,4-1.2,5.1c-1,1.1-2.5,1.6-4.6,1.6
		c-1.1,0-1.9-0.3-2.4-0.7c-0.5-0.4-0.9-1.2-1.1-2.4c-0.2-1.6-0.3-3.2-0.3-4.8c0-1.6,0-3.2,0-4.8c0-0.8-0.1-1.5-0.2-1.9
		c-0.1-0.5-0.2-0.8-0.4-1c-0.2-0.2-0.6-0.4-1-0.4c-0.5-0.1-1.1-0.1-1.8-0.1c-2.6,0-5.3,0-7.9,0c-2.6,0-5.2,0.1-7.9,0.3
		c-0.9,0.1-1.6,0.2-2.1,0.3c-0.5,0.1-0.9,0.3-1.2,0.6c-0.3,0.3-0.4,0.7-0.5,1.2c-0.1,0.5-0.1,1.3-0.2,2.2c-0.1,1.5-0.2,3-0.2,4.5
		c0,1.5-0.1,3-0.2,4.5c0,0.5-0.3,1-0.8,1.4c-0.5,0.4-1.1,0.7-1.9,1c-0.7,0.2-1.5,0.4-2.2,0.4c-0.7,0-1.4-0.1-1.9-0.3
		c-0.9-0.3-1.5-0.9-1.7-1.7C185.4,173.4,185.2,172.6,185.2,171.7z M233.7,174.5c-0.4-0.8-0.6-1.9-0.4-3.4c0.4-2.9,0.5-5.7,0.5-8.5
		c0-2.8,0.1-5.7,0.5-8.5c0.3-3,1-5.8,2-8.5c1-2.7,2.7-5,5.2-6.9c1.2-1,2.5-1.8,3.8-2.6s2.7-1.4,4-1.8c1.4-0.5,2.8-0.8,4.4-0.9
		c1.5-0.1,3.1,0,4.7,0.3c1.6,0.4,3.3,1,5,1.8c1.7,0.8,3.2,1.8,4.4,3c2.3,2.2,4,4.5,5.1,7.1c1.2,2.6,2.1,5.3,2.9,8.3
		c0.2,0.8,0.3,1.7,0.5,2.9c0.1,1.2,0.2,2.4,0.3,3.7c0.1,1.3,0.2,2.7,0.2,4.1s0.1,2.7,0.1,3.9s0,2.2-0.1,3.1c0,0.9-0.1,1.5-0.2,1.8
		c-0.2,1-0.9,1.8-1.9,2.3c-1,0.5-2.1,0.6-3.3,0.4c-1.3-0.4-2.2-1.1-2.6-2.2c-0.4-1.1-0.5-2.4-0.4-3.9c0-0.4,0-0.9,0-1.4
		c0-0.5,0-1.1-0.1-1.6c-0.1-0.5-0.2-0.9-0.3-1.3c-0.2-0.4-0.4-0.6-0.6-0.7c-0.2-0.1-0.8-0.2-1.8-0.3c-1-0.1-2.1-0.1-3.5-0.1
		c-1.4,0-2.9,0-4.5,0c-1.6,0-3.2,0-4.8,0c-1.6,0-3.1,0-4.4,0c-1.4,0-2.4,0-3.3,0c-0.9,0-1.5,0-1.9,0.1s-0.7,0.2-1,0.5
		c-0.2,0.3-0.3,0.6-0.4,1.1c-0.1,0.5-0.1,1.2-0.2,2c-0.1,0.9-0.1,1.7-0.1,2.2c0,0.6,0,1.3-0.1,2.2c-0.1,0.9-0.3,1.5-0.7,1.9
		c-0.4,0.4-0.8,0.7-1.3,0.9c-0.5,0.2-1,0.3-1.6,0.2c-0.5,0-1,0-1.4,0C235.1,175.7,234.2,175.3,233.7,174.5z M243,155.9
		c0.2,0.2,0.8,0.3,1.9,0.3c3.4,0,6.7,0,10-0.1s6.5,0,9.6,0.2c1,0,1.7-0.2,2.2-0.4c0.5-0.2,0.8-0.5,1-0.9c0.2-0.4,0.2-0.8,0-1.4
		c-0.1-0.5-0.4-1.2-0.7-2c-0.6-1.7-1.4-3.2-2.2-4.4c-0.8-1.2-1.9-2.4-3.3-3.7c-1.1-1-2.2-1.6-3.4-1.9c-1.2-0.3-2.6-0.4-4.3-0.2
		c-3.1,0.6-5.6,1.8-7.5,3.7c-1.9,1.9-3.1,4.8-3.6,8.8C242.7,155,242.8,155.7,243,155.9z M284,172.3c-0.1-0.8-0.1-1.5-0.1-2.3
		c0-0.8,0-1.5,0-2.3c0-0.7,0-1.8,0-3.3c0-1.5,0-3.1,0-5c0-1.9,0-3.8,0-5.9c0-2.1,0-4.1,0-6c0-1.9,0-3.7,0.1-5.2c0-1.6,0-2.8,0-3.7
		c0-1.9,0.4-3.3,1.2-4.1c0.7-0.8,2.1-1.2,4-1.1c3.3,0.1,6.4,0.1,9.5-0.1c3-0.2,6.1-0.1,9.3,0.1c3.5,0.2,6.9,0.8,10.1,1.7
		c1.7,0.5,3.1,1.2,4.2,2.1c1.1,0.9,2,2,2.6,3.2c0.6,1.2,1,2.6,1.1,4c0.1,1.5,0,3-0.3,4.7c-0.3,1.6-0.9,3.1-1.6,4.4
		c-0.8,1.3-1.7,2.4-2.8,3.4c-1.1,1-2.3,1.9-3.6,2.6c-1.3,0.7-2.7,1.4-4.2,2c-2.3,0.9-4.6,1.5-7,1.8c-2.4,0.3-4.8,0.4-7.3,0.3
		c-1.9,0-3.2,0-4.1,0c-0.9,0-1.5,0.3-1.8,0.6c-0.3,0.4-0.5,1-0.4,1.7c0,0.8,0.1,1.8,0.1,3.2c0,0.6,0,1.2,0,1.7c0,0.5,0,1.1-0.1,1.6
		c-0.1,0.5-0.2,1-0.4,1.4c-0.2,0.4-0.6,0.8-1.1,1.2c-0.6,0.5-1.4,0.8-2.2,0.9c-0.8,0.1-1.6,0-2.3-0.2c-0.7-0.2-1.3-0.6-1.9-1.2
		C284.5,173.8,284.1,173.1,284,172.3z M293,143.4c0,1.6,0,3.3,0,4.9s0,3.3,0,5c0,1.3,0.7,1.9,2,1.9c0.4,0,1.3,0,2.6,0
		c1.3,0,2.8,0,4.4-0.1c1.6-0.1,3.3-0.3,4.9-0.5c1.6-0.2,3-0.6,4-1c2.2-0.9,3.8-2,4.8-3.5c1-1.5,1.5-2.9,1.4-4.4
		c0-0.7-0.2-1.4-0.6-1.9c-0.4-0.6-0.9-1.1-1.6-1.5s-1.4-0.7-2.2-1c-0.8-0.2-1.6-0.4-2.4-0.5c-1.3-0.1-2.7-0.2-4.3-0.2
		s-3.1,0-4.5,0.1c-1.4,0.1-2.7,0.1-3.7,0.2c-1.1,0-1.7,0.1-2,0.1C293.9,140.8,293,141.6,293,143.4z M332.3,172.3
		c-0.1-0.8-0.1-1.5-0.1-2.3c0-0.8,0-1.5,0-2.3c0-0.7,0-1.8,0-3.3c0-1.5,0-3.1,0-5c0-1.9,0-3.8,0-5.9c0-2.1,0-4.1,0-6
		c0-1.9,0-3.7,0.1-5.2c0-1.6,0-2.8,0-3.7c0-1.9,0.4-3.3,1.2-4.1c0.7-0.8,2.1-1.2,4-1.1c3.3,0.1,6.4,0.1,9.5-0.1
		c3-0.2,6.1-0.1,9.3,0.1c3.5,0.2,6.9,0.8,10.1,1.7c1.7,0.5,3.1,1.2,4.2,2.1c1.1,0.9,2,2,2.6,3.2c0.6,1.2,1,2.6,1.1,4
		c0.1,1.5,0,3-0.3,4.7c-0.3,1.6-0.9,3.1-1.6,4.4c-0.8,1.3-1.7,2.4-2.8,3.4c-1.1,1-2.3,1.9-3.6,2.6c-1.3,0.7-2.7,1.4-4.2,2
		c-2.3,0.9-4.6,1.5-7,1.8c-2.4,0.3-4.8,0.4-7.3,0.3c-1.9,0-3.2,0-4.1,0c-0.9,0-1.5,0.3-1.8,0.6c-0.3,0.4-0.5,1-0.4,1.7
		c0,0.8,0.1,1.8,0.1,3.2c0,0.6,0,1.2,0,1.7s0,1.1-0.1,1.6c-0.1,0.5-0.2,1-0.4,1.4c-0.2,0.4-0.6,0.8-1.1,1.2
		c-0.6,0.5-1.4,0.8-2.2,0.9c-0.8,0.1-1.6,0-2.3-0.2c-0.7-0.2-1.3-0.6-1.9-1.2C332.7,173.8,332.4,173.1,332.3,172.3z M341.2,143.4
		c0,1.6,0,3.3,0,4.9c0,1.7,0,3.3,0,5c0,1.3,0.7,1.9,2,1.9c0.4,0,1.3,0,2.6,0c1.3,0,2.8,0,4.4-0.1c1.6-0.1,3.3-0.3,4.9-0.5
		c1.6-0.2,3-0.6,4-1c2.2-0.9,3.8-2,4.8-3.5c1-1.5,1.5-2.9,1.4-4.4c0-0.7-0.2-1.4-0.6-1.9s-0.9-1.1-1.6-1.5c-0.7-0.4-1.4-0.7-2.2-1
		c-0.8-0.2-1.6-0.4-2.4-0.5c-1.3-0.1-2.7-0.2-4.3-0.2s-3.1,0-4.5,0.1c-1.4,0.1-2.7,0.1-3.7,0.2c-1.1,0-1.7,0.1-2,0.1
		C342.1,140.8,341.2,141.6,341.2,143.4z M380,140.5c0.5,0.5,1.1,1.1,1.8,1.8c0.7,0.7,1.5,1.5,2.3,2.3c0.8,0.8,1.7,1.7,2.5,2.5
		c0.8,0.8,1.6,1.6,2.3,2.3c0.7,0.8,1.4,1.4,1.9,1.8c0.6,0.6,1.2,1.1,1.6,1.5c0.4,0.4,0.8,0.8,1,1.3c0.2,0.5,0.4,1,0.5,1.5
		c0.1,0.5,0.1,1.2,0.1,2c0,0.8-0.1,1.7-0.1,2.8c0,1-0.1,2.1-0.2,3.2c-0.1,1.1-0.1,2.1-0.2,3.2c-0.1,1-0.2,1.9-0.2,2.7
		c0,0.8,0,1.7,0,2.8c0,1.1,0.3,1.8,0.9,2.3c0.3,0.4,0.7,0.7,1.2,0.9c0.5,0.2,1.2,0.4,1.8,0.4c0.7,0,1.4,0,2.1-0.2
		c0.7-0.2,1.3-0.6,1.9-1.2c0.6-0.7,1-1.7,1.3-3c0.2-1.3,0.4-2.8,0.5-4.4c0.1-1.6,0.1-3.4,0-5.2c-0.1-1.8-0.1-3.6-0.1-5.2
		c0-1,0-1.9,0.2-2.5c0.2-0.6,0.7-1.3,1.6-2c0.6-0.5,1.4-1.2,2.3-2.1c0.9-0.8,1.9-1.7,2.9-2.7c1-0.9,2-1.9,3-2.8c1-1,1.9-1.8,2.7-2.6
		c0.8-0.8,1.4-1.5,2-2s0.8-0.9,0.9-1c0.5-0.6,0.9-1.2,1.3-1.9c0.4-0.7,0.3-1.4-0.3-2.1c-0.5-0.6-1.3-1.1-2.2-1.5
		c-0.9-0.4-1.9-0.4-3,0.1c-0.6,0.2-1.2,0.5-1.9,1c-0.7,0.4-1.3,0.9-1.9,1.4c-0.6,0.5-1.2,1-1.8,1.6c-0.6,0.5-1.1,1-1.6,1.4
		c-1.2,1.1-2.4,2.1-3.5,3c-1.1,0.8-2.3,1.8-3.7,3c-1.3,1.2-2.5,1.2-3.7-0.1c-0.6-0.6-1.4-1.5-2.6-2.6c-1.1-1.1-2.3-2.2-3.4-3.3
		c-1.2-1.1-2.3-2.1-3.3-3.1c-1-0.9-1.7-1.5-2.1-1.8c-0.5-0.3-1-0.5-1.6-0.7c-0.6-0.1-1.2-0.2-1.7-0.1c-0.6,0.1-1.1,0.2-1.6,0.4
		c-0.5,0.2-0.9,0.5-1.2,0.9c-0.6,0.8-0.9,1.5-0.8,2.3c0.1,0.8,0.6,1.7,1.4,2.7C379.2,139.7,379.5,140,380,140.5z M234.1,273.7
		c-1.7,4.6-8.6,21.3-17.7,36.9c-5.6,9.4-11.2,16.9-16.5,22.1c-7.1,7.1-14,10.6-20.7,10.6c-6.4,0-11.6-2.6-14.9-7.6
		c-0.5-0.8-1-1.8-1.3-2.6c-7.1,6.8-13.7,10.2-19.5,10.2c-2.6,0-5.1-0.3-7.3-1.3c-2.1-1-4-2.5-5.5-4.5c-2.6-3.5-3.8-8.4-3.8-15
		c0-7.1,1.8-12.4,6.9-26.1c1-2.5,2-5.5,3.3-8.8c0.7-2,1.5-4.1,2.1-6.3c4.6-12.6,8.4-23.3,13.1-31.6c2-3.8,4.1-6.8,6.3-9.1
		c-4.3-1-8.6-2.3-13.1-3.8c-10.2-3.1-20.8-6.4-32.1-6.4c-10.9,0-19.8,2.8-25.8,8.4c-4.8,4.3-7.4,10.4-7.4,16.4c0,4,1,7.6,3.1,10.1
		c2,2.5,4.8,3.8,7.9,3.8c5,0,8.8-3.6,11.2-10.4c0.7-1.7,2.6-2.6,4.5-2c1.8,0.7,2.6,2.6,2.1,4.5c-1.8,4.8-4.3,8.4-7.3,11.1
		c-3.1,2.5-6.8,3.6-10.6,3.6c-5.3,0-10.1-2.1-13.4-6.3c-3-3.8-4.6-8.9-4.6-14.4c0-7.9,3.5-15.7,9.6-21.5
		c7.3-6.6,17.9-10.2,30.6-10.2c12.2,0,23.8,3.6,34,6.8c8.3,2.6,16,5.1,22.5,5.1c2,0,3.5,1.5,3.5,3.5c0,1.8-1.5,3.3-3.5,3.3
		c-1.8,0-3.8,0.8-5.6,2.5c-2,2-4,4.6-6.1,8.4c-4.3,7.8-8.1,18.3-12.4,30.6c-0.8,2.1-1.5,4.1-2.3,6.4l-3.3,8.6
		c-5,13.4-6.6,17.9-6.6,23.8c0,5,1,8.6,2.6,10.9c1.5,2,3.8,3,7.1,3c4.6,0,10.6-3.8,17.4-10.9c-0.3-2.1-0.5-4.5-0.5-7.1
		c0-6.3,1.2-13.6,3-21.3c2-7.1,4.5-14.4,7.6-21c3.1-6.8,6.6-12.6,10.1-16.7c4.1-5,8.4-7.4,12.2-7.4c2.6,0,4.8,1.2,6.1,3.1
		c1.2,1.7,1.7,3.8,1.7,6.6c0,6.4-3.1,15.4-5.8,21.7c-3.5,8.6-8.4,18-13.9,26.6c-4.3,6.8-8.8,12.7-13.1,17.7c0.5,1.7,1.2,3.1,1.8,4.3
		c2,3,5,4.5,9.1,4.5c4.8,0,10.1-2.8,15.7-8.4c5-5,10.2-11.9,15.5-20.8c8.8-14.9,15.4-31.1,17.2-35.7v-0.2l0.2-0.2
		c3.3-9.4,6.3-17.7,7.4-24.5c1.7-9.4-1-11.7-1.8-12.6c-1.3-1.3-1.5-3.5-0.3-4.8c1.3-1.5,3.6-1.7,5-0.3c2.3,2.1,3.8,5,4.3,8.4
		c0.5,3,0.3,6.4-0.3,10.6C240.7,255,237.7,263.8,234.1,273.7z M168,317c8.6-11.2,17-26.1,21.8-38.7c2.3-5.6,3.6-10.4,4.1-14
		c0.5-4.3-0.2-5.5-0.3-5.6h-0.3c-1.7,0-4.3,2-7.1,5.1c-3,3.6-6.1,8.9-8.9,15c-6.1,13.1-9.9,28.1-9.9,39.3
		C167.5,317.6,167.8,317.3,168,317z M234.9,323.9c1.7,4.6,5.5,7.4,11.2,7.4c27.9,0,39.3-54.7,12.7-54.7c-18.3,0-21.5,32.2-4.1,32.2
		c4.1,0,4.5-6.1,0-6.1c-8.4,0-5.6-19.8,4.1-19.8c16.2,0,5.1,41.7-12.2,41.7c-6.1,0-7.6-6-4.1-15.2c0.2-0.5,0.2-1,0.2-1.5
		c0-1-0.5-1.8-1.3-2.3l-1-0.5c-1.7-0.7-3.3,0.2-4.1,2l-0.5,1.7c-3.8,9.8-8.3,16.4-13.4,16.4c-2,0-3.5,1.5-3.5,3.3s1.5,2.6,3.5,2.6
		C227.1,331,231.3,328.5,234.9,323.9z M445.2,309.2c-5.5,14.4-11.9,22-19.8,22c-9.9,0-13.2-10.1-7.9-24l4-11.7
		c2-5.8,0.2-10.2-4.5-10.2c-7.3,0-13.4,9.1-17.7,19.2l-1.5,4c0,0.2-0.2,0.3-0.2,0.5c-4.7,13.3-11,21.2-18.9,22.1
		c-1.6,0.4-3.3,0.6-5.2,0.6c-7.7,0-15.1-4.1-18.4-11.1c-4.2,7.1-9,10.7-14.7,10.7c-9.9,0-12.7-9.9-7.8-24.1l4-11.6
		c2-6,0.5-10.2-4-10.2c-7.3,0-15,12.9-18.2,21.7l-8.1,22c-1.7,4.5-7.6,2-6.1-2.1l6.9-19.7l4.3-11.6c2.1-6,0.3-10.2-4.1-10.2
		c-7.1,0-13.6,10.4-18.5,23.3c0,0-0.2,0.2-0.2,0.3c-1.2,3.5-2.6,6.7-4.1,9.4c-4.4,8.2-9.7,12.7-16.2,12.7c0,0-0.1,0-0.1,0
		c0,0,0,0,0,0c0,0,0,0,0,0c0,0,0,0,0,0c-2,0-3.5-0.8-3.5-2.6c0-0.1,0-0.2,0-0.2c0-0.1,0-0.2,0-0.3c0-1.8,1.5-3.3,3.5-3.3
		c5.4,0,9.8-6.8,13.7-17.1c0-0.1,0.1-0.3,0.1-0.4c0,0,0,0,0,0c0,0,0,0,0,0l9.4-25.9c0.7-1.8,2.1-2.6,4.3-2.1c1.8,0.7,2.6,2.5,2,4.3
		c3-2.8,6.4-4.6,10.1-4.6c5.8,0,9.3,3.3,9.6,9.3c4.8-6,8.3-9.3,15.5-9.3c8.8,0,13.6,9.1,9.9,19.2l-4.5,11.6v0.2
		c-3.1,8.8-2.5,15,1.8,15c4.5,0,9.5-5.6,13.2-16.3c1.8-14.1,12.9-29.6,24.5-29.6c14.7,0,11.2,32.7-10.2,32.7c-2.8,0-7.4-0.7-7.4-1.7
		c-0.2,1-0.3,2-0.3,3c0,7.4,6.8,12.4,13.9,12.4c6.5,0,10.4-3.8,13.3-9.1c0.5-0.9,0.9-1.8,1.4-2.8c0.1-0.2,0.1-0.3,0.2-0.5
		c0.1-0.2,0.2-0.4,0.3-0.6c0.7-1.5,1.3-3.1,1.9-4.7c0-0.1,0.1-0.3,0.1-0.4c0,0,0,0,0,0c0,0,0,0,0,0l9.4-25.9
		c0.7-1.8,2.1-2.6,4.3-2.1c1.8,0.7,2.6,2.5,2,4.3l-0.2,0.5c3.3-3.1,6.9-5.1,10.9-5.1c8.8,0,13.9,9.4,10.4,19.3l-4.5,11.4
		c-3.5,8.9-2.6,15.2,1.8,15.2s9.1-6,13.6-17.5C440.2,302.9,446.7,305.2,445.2,309.2z M362.7,301.9c0,1.8,1.3,3.3,5,3.3
		c13.2,0,14.7-19.8,9.8-19.8c-6.3,0-13.4,10.6-14.7,16.2V301.9z M463.7,248.7c-1.7,0,3.6,4.5,8.9-2.5l0.5-0.7
		c0.8-1.3,1.3-2.5,1.3-3.6v-0.2c0.2-2.5-1.7-4.3-4-4.3c-1.2,0-2.1,0.3-3,0.8c-1,0.8-1.7,2.1-1.7,3.6c0,1.2,0.3,1.8,0.7,2.3
		c0.3,0.7,1.3,1,0.2,2.8C466,247.9,465,248.7,463.7,248.7z M497.1,307.1c-3.8,10.6-8.4,17.5-13.9,17.5c-2,0-3.5,1.5-3.5,3.3
		c0,1.8,1.5,3.1,3.5,3.1c8.6,0,15.2-7.8,20.2-21.8C504.7,305.4,498.6,302.9,497.1,307.1z M474.9,278.6c0-1.2,0.2-2,0.3-2.5l0.3-1
		c0.8-2.1-0.5-3.6-2-4.1c-1.5-0.3-3.3,0.2-4,2.1c-0.5,1.2-0.8,2-1,2.8l-3.5,8.9l-8.1,22.3c-1.5,4.3,4.8,6.1,6.3,2l6-17.2l1.7-4.5
		c2.8,5.1,6.8,9.9,6.8,20c0,9.4-6.8,18-14.4,18c-5.8,0-10.4-3.1-10.4-7.3c0-5.1-6.8-5.3-6.8,0c0,6.9,7.1,12.9,15.5,12.9
		c12.6,0,23.3-11.2,23.3-24.3C485,292,474.9,286.1,474.9,278.6z M325.1,405.1c-2.8,8.1-7.3,16.2-12.7,23
		c-5.3,6.8-11.4,12.4-17.9,16.2c-7.1,4.1-14,6.3-21,6.3c-9.3,0-15.9-3.6-21.5-7.4c-0.8,0.8-1.7,1.7-2.6,2.1c-4.6,3.3-9.8,5-15,5
		c-3.5,0-6.3-1.2-8.4-3.6c-1.8-2-2.8-4.6-2.8-7.4c0-2.8,1.2-5.5,3-7.4c1.5-1.7,4.1-3.3,8.4-3.3c6.6,0,11.7,2.6,16.5,6
		c1.2-1.3,2.1-2.8,3.1-4.5c1.3-1.8,2.3-4,3.5-6c-7.3-1.8-13.2-5.5-18-10.9c-3.1-3.6-5.6-7.9-7.3-12.7c-1.7-4.8-2.5-9.9-2.5-15.2
		c0-8.3,1.7-16,5-23.1c3-6.6,7.1-12.4,12.7-17.2c10.1-8.9,23.6-14.2,37.2-14.2c12.2,0,23.3,4.1,31.4,11.7
		c9.1,8.4,13.9,20.8,13.9,35.7C330.1,387.1,328.4,396.2,325.1,405.1z M246.1,439.2c-3.6-2.3-7.3-4-11.6-4c-4.1,0-4.6,2.8-4.6,4
		c0,1.5,1,4.3,4.5,4.3c4,0,7.6-1.3,11.1-3.8C245.6,439.7,245.8,439.5,246.1,439.2z M323.3,378c0-6.8-1.2-12.9-3.3-18.3
		c-2-4.8-5-8.9-8.6-12.4c-6.6-6.3-16.2-9.8-26.6-9.8c-12.1,0-23.8,4.5-32.7,12.4c-4.8,4.1-8.4,9.3-11.1,14.9
		c-2.8,6.1-4.1,13.1-4.1,20.3c0,9.3,2.8,17.5,7.9,23.5c2.8,3.1,6.1,5.6,10.1,7.3c1.8,0.8,3.6,1.3,5.6,1.8c2.3-5.3,4.3-10.9,6-15.7
		c0.5-1.7,1.2-3.5,1.8-5v-0.2l0.8-2.3c4.1-11.2,7.9-22.1,12.1-30.7c5-10.2,9.6-16.4,14.7-19.2c1.7-1,3.6-0.3,4.6,1.2
		c0.8,1.7,0.3,3.8-1.3,4.8c-3.6,2-7.6,7.3-11.7,16c-4,8.4-7.9,19.2-12.1,30.4l-0.7,2.1c-0.7,1.7-1.2,3.3-1.8,5.1
		c-1.5,4.5-3.3,9.3-5.3,14.2h2c5.1,0,10.2-0.8,14.5-2.5c3.6-1.5,6.4-3.5,7.6-5.6c0.8-1.7,3-2.3,4.6-1.5c1.7,1,2.1,3,1.3,4.6
		c-1.8,3.6-5.8,6.8-11.2,8.9c-4.8,1.8-10.7,3-16.9,3c-1.7,0-3.3-0.2-5-0.2c-1.3,3-3,5.8-4.6,8.4c-1,1.5-2.1,3-3.1,4.3
		c4.8,3.1,9.8,5.6,16.7,5.6c5.6,0,11.4-1.8,17.5-5.3c5.8-3.5,11.2-8.4,16-14.5C317.3,410.7,323.3,394,323.3,378z M431.7,414.2
		c-4,10.6-8.4,17.5-13.9,17.5c-2,0-3.5,1.5-3.5,3.3c0,1.8,1.5,3.1,3.5,3.1c8.6,0,15.2-7.8,20.2-21.8
		C439.3,412.5,433.2,410.2,431.7,414.2z M419,414.9c-2.3,6.1-5.1,14-7.1,19.5c-5.8,16.4-10.4,29.4-15.4,38.3
		c-2.8,5-5.6,8.6-8.6,11.1c-3.5,2.8-7.4,4.3-11.6,4.3c-5.6,0-10.4-4.3-11.6-10.6c-2.1-9.6,4.1-23.6,27.6-34.1l7.4-3l3.1-1.5l2-4.8
		c-3.5,2.5-7.1,4.1-10.9,4.1c-5.5,0-9.2-2.9-10.7-7.7c-3.8,4.9-8.1,7.5-12.6,7.5c-4.6,0-8.3-3-9.3-8.8c-5.3,5.6-11.6,8.8-16.4,8.8
		c-3.6,0-6.6-1.5-8.4-4.1c-0.8-1.2-1.5-2.5-1.8-4.1c-3.8,5.3-8.3,8.3-13.4,8.3c-2,0-3.5-0.8-3.5-2.6s1.5-3.3,3.5-3.3
		c5.5,0,9.9-7.3,13.9-17.9c0-0.2,0.2-0.3,0.2-0.5c3.8-13.6,14-27.9,26.4-27.9c9.9,0,15.7,9.4,11.7,19.2c-0.8,3.1-3.8,11.2-3.8,11.2
		c-3.3,8.9-3.6,15.4,0.8,15.4c5.1,0,9.9-6.6,13.9-17.7c0.1-0.4,0.3-0.7,0.5-1l9.2-24.8c0.7-1.7,2.5-2.6,4.5-2.1h-0.2
		c1.7,0.7,2.5,2.6,1.8,4.3l-9.6,25.8v0.2c0,0.3-0.2,0.5-0.3,0.7c-2.5,7.6-1.2,14.7,3.5,14.7c4.3,0,14.1-6.3,18.2-17.5
		c0-0.2,0.2-0.3,0.2-0.5l9.4-25.5c1.7-4.1,7.8-2.1,6.1,2.1l-8.9,24.1V414.9z M367.9,403c2-5.6-0.7-10.4-6-10.4
		c-14,0-25.5,30.2-20,37.7c0.7,1.2,1.7,1.5,3.1,1.5c5.8,0,15.2-8.6,18.3-16.9L367.9,403z M400.1,447.4c-1.7,0.7-3.3,1.5-5,2.1
		c-20,8.8-25.5,19.8-24,26.6c0.7,3.1,2.6,5.3,5.1,5.3C386.1,481.5,392.2,468.9,400.1,447.4z M87.6,194.1c-6.5-8.2-5.9-21.2,1.5-28.7
		s20.4-8.4,28.7-2c-1.1-6.8,0.7-14.2,5.4-19.1c4.8-5,12.6-7,18.9-4.1c5,2.3,8.4,7.4,9.9,12.7c1.5,5.3,1.4,11,1,16.5
		c-0.8,13.4-2.3,27.8,2.5,39.8c0.5,1.2-0.9,2.4-2,1.7c-8.3-5.4-19.8-5.9-30.1-6C110.4,205.1,95.6,204.2,87.6,194.1z M95,184.6
		c1.4,4.1,5.2,7.2,9.4,8.5s8.7,0.9,12.9-0.5c-0.9-3.3-5.4-3.8-7.7-6.3c-2-2-3.7-5.5-4-8.7c-0.1-1.4,0.5-2.8,0-4.1
		c-0.5-1.3-1.9-2.1-3.3-2.1c-1.4-0.1-2.8,0.5-3.9,1.4C94.7,175.4,93.6,180.4,95,184.6z M341.7,214.8c-0.3,15.1-13.3,26.9-26.4,34.4
		c-11,6.3-23.2,11.4-32.5,19.8c-1.9,1.7-4.9,0.7-5.3-1.8c-1.9-10-9.2-18.9-16-26.9c-8.3-9.9-16.9-22-14.1-34.6
		c2.1-9.8,11.7-17.4,21.7-17.3c10,0.1,19.4,8,21.3,17.8c3.8-11.9,17.1-19.9,29.4-17.8C332.1,190.3,341.9,202.3,341.7,214.8z
		 M277.8,201.8c-1.4-2.8-4.9-4.1-8-3.6c-3.1,0.5-5.8,2.5-7.7,5c-2.7,3.5-4,8.1-3.3,12.4c0.6,4.4,3.3,8.4,7.1,10.6
		c-1.4-3.7-1.3-7.9,0.3-11.5c1.6-3.6,4.7-6.5,8.3-7.9c1.4-0.5,3.1-1,3.6-2.5C278.5,203.5,278.2,202.6,277.8,201.8z M419.2,192.4
		c2.7-14.3,8.4-29.9,21.5-36.3c5.7-2.8,13.2-3.3,18,0.9c4,3.5,5.1,9.3,4.3,14.4c-0.8,5.2-3.4,9.9-5.9,14.5
		c9.9-8.7,24.2-14.1,36.6-7.3c8,4.4,12.3,13.7,9,22.2c-4.1,10.5-16.9,13.1-27.6,15.8c-19.2,4.9-37.2,14.8-51.7,28.3
		c-2.5,2.3-6.7,0.7-7-2.8C415.2,225.6,416,208.8,419.2,192.4z M456,194.8c4.4,0.2,8.6-1.1,12.9-2.2c4.2-1.1,8.7-2,12.9-1.1
		c4.3,0.9,8.4,4.1,9.1,8.4c2.8-4,0.9-9.9-3-12.8s-9.2-3.1-14-2.1C467.1,186.3,460.7,189.8,456,194.8z"/>
</g>
</svg>
